<?xml version="1.0" standalone="no"?>
<!DOCTYPE svg PUBLIC "-//W3C//DTD SVG 20010904//EN"
 "http://www.w3.org/TR/2001/REC-SVG-20010904/DTD/svg10.dtd">
<svg version="1.0" xmlns="http://www.w3.org/2000/svg"
 width="616.000000pt" height="616.000000pt" viewBox="0 0 616.000000 616.000000"
 preserveAspectRatio="xMidYMid meet">
<metadata>
Created by potrace 1.14, written by Peter Selinger 2001-2017
</metadata>
<g transform="translate(0.000000,616.000000) scale(0.100000,-0.100000)"
fill="#000000" stroke="none">
<path d="M3147 6154 c-1 -1 -24 -4 -52 -8 -168 -21 -324 -68 -457 -138 -41
-22 -58 -37 -59 -52 -1 -12 -2 -25 -4 -31 -1 -5 -3 -30 -4 -55 l-1 -45 -31 33
c-16 18 -53 76 -81 130 -28 53 -53 97 -57 96 -19 -1 -73 -20 -121 -41 -123
-55 -223 -135 -275 -221 l-29 -48 -56 56 c-50 52 -110 100 -124 100 -7 0 -26
-72 -30 -114 -2 -18 -5 -37 -8 -42 -2 -5 -4 -61 -3 -124 2 -105 6 -162 20
-230 3 -14 8 -41 11 -60 7 -42 29 -115 56 -191 23 -67 3 -68 237 10 84 28 155
51 157 51 2 0 4 -9 4 -21 0 -79 101 -273 176 -337 32 -27 149 -90 209 -113 93
-35 292 -30 427 10 94 29 186 122 214 219 86 295 -120 616 -331 516 -60 -28
-94 -125 -89 -255 2 -42 6 -89 8 -105 3 -16 9 -50 12 -76 l7 -48 -44 -20
c-108 -49 -191 1 -236 140 -17 51 -23 156 -10 190 2 8 12 37 22 63 20 55 76
130 128 170 116 88 282 104 415 39 95 -46 169 -136 210 -255 31 -90 40 -270
17 -356 -43 -162 -157 -288 -322 -353 -70 -27 -79 -18 77 -78 47 -19 112 -47
145 -64 33 -16 62 -30 65 -31 7 0 159 -95 185 -115 46 -35 185 -181 185 -195
0 -8 4 -15 9 -15 10 0 44 -83 60 -144 13 -50 6 -179 -13 -239 -9 -27 -29 -74
-45 -106 l-29 -57 89 -44 c49 -24 89 -47 89 -52 0 -4 5 -8 11 -8 27 0 133 -98
199 -185 167 -218 229 -575 175 -1005 -13 -100 -17 -130 -26 -190 -5 -36 -16
-96 -24 -135 -8 -38 -16 -82 -19 -97 -3 -15 -7 -32 -11 -38 -3 -5 -3 -10 2
-10 23 1 177 267 243 421 57 132 120 326 134 414 3 17 10 53 15 81 30 158 31
419 1 574 -6 30 -13 67 -15 83 -16 85 -59 220 -106 324 -11 24 -18 44 -17 45
2 2 -7 19 -20 39 -12 20 -22 39 -22 41 0 3 43 4 95 1 l94 -4 -29 83 c-55 154
-166 355 -250 452 -78 91 -171 177 -285 264 -74 57 -168 111 -322 187 -62 30
-113 57 -113 60 0 6 112 -2 151 -11 13 -3 35 -7 49 -10 27 -5 86 -22 110 -31
8 -4 17 -7 20 -7 3 -1 11 -5 18 -9 6 -5 12 -6 12 -3 0 4 86 -33 192 -84 l43
-20 -38 36 c-54 51 -113 132 -139 189 -27 61 -28 65 -32 140 -13 213 171 374
459 401 33 4 62 8 64 10 7 7 -204 209 -254 244 -27 18 -52 36 -55 39 -44 50
-396 221 -422 205 -19 -12 -42 -138 -42 -229 0 -96 19 -172 59 -239 18 -31 32
-56 31 -56 -1 0 -27 7 -57 16 -236 70 -388 258 -385 476 1 31 -3 54 -8 51 -5
-4 -6 -2 -3 4 7 11 14 48 22 113 l5 41 -115 -3 c-64 -1 -117 -3 -118 -4z"/>
<path d="M4823 5492 c-24 -2 -43 -7 -43 -13 0 -5 6 -9 14 -9 27 0 192 -89 231
-126 80 -73 96 -84 128 -84 53 0 78 30 84 99 3 41 -1 52 -23 74 -40 40 -109
58 -236 61 -62 1 -132 0 -155 -2z"/>
<path d="M4538 5425 c-101 -37 -151 -96 -152 -180 -1 -98 75 -207 204 -294 45
-31 177 -93 240 -114 16 -5 -25 -25 -65 -33 -11 -2 -56 -10 -100 -19 -143 -27
-330 -18 -424 21 -34 14 -34 14 -17 -5 10 -11 68 -55 129 -97 62 -43 114 -81
117 -84 3 -3 32 -25 65 -49 33 -25 62 -48 63 -53 2 -4 8 -8 14 -8 6 0 25 -12
42 -27 18 -16 52 -44 76 -63 24 -19 48 -39 54 -45 6 -5 43 -37 81 -70 69 -59
297 -283 366 -361 153 -171 314 -425 379 -599 13 -33 26 -69 31 -80 9 -22 17
-52 25 -87 3 -13 6 -27 8 -33 9 -32 24 -139 25 -179 1 -16 4 -27 7 -24 19 19
18 450 -1 549 -3 13 -8 49 -11 79 -3 30 -7 57 -9 61 -2 3 -7 21 -10 40 -22
132 -124 458 -162 516 -8 12 -14 24 -14 28 2 7 -76 163 -114 230 -31 56 -155
247 -165 255 -3 3 -17 21 -30 40 -30 42 -32 45 -114 143 -36 43 -66 82 -66 87
0 5 -4 19 -9 32 -5 13 -9 26 -10 31 0 4 -15 35 -32 70 -65 129 -169 236 -289
296 -75 39 -89 41 -132 26z"/>
<path d="M2080 5070 c-8 -4 -60 -27 -115 -50 -119 -50 -317 -148 -397 -197
-59 -35 -59 -34 -82 -133 -8 -34 -13 -39 -81 -86 -85 -57 -206 -141 -380 -263
-82 -57 -177 -123 -210 -145 -33 -23 -62 -43 -65 -46 -3 -3 -44 -33 -91 -66
-267 -190 -305 -279 -214 -497 l15 -36 88 42 c198 95 218 96 149 6 -23 -30
-48 -64 -55 -75 -22 -33 -72 -143 -72 -158 0 -18 81 -180 92 -184 4 -2 8 -10
8 -17 0 -23 113 -131 160 -153 92 -41 192 -44 580 -17 332 23 390 23 452 -4
94 -40 136 -101 133 -192 -4 -93 -44 -142 -139 -171 -97 -29 -184 -17 -236 33
-30 29 -50 36 -64 22 -4 -5 -11 -8 -15 -8 -3 0 -29 -14 -57 -32 -45 -29 -56
-32 -114 -29 -78 3 -130 26 -170 75 -82 100 -79 97 -90 81 -15 -21 -5 -106 19
-163 22 -51 23 -53 74 -111 l34 -40 -19 -43 c-68 -155 47 -343 324 -530 l68
-46 72 24 c100 33 112 55 75 130 -26 52 -26 55 -9 69 11 8 65 51 122 95 56 44
119 95 139 112 40 36 47 39 49 21 6 -95 91 -198 206 -253 78 -37 79 -37 91 35
7 43 37 145 54 185 60 138 149 389 181 510 73 280 51 495 -62 601 -33 32 -110
74 -158 89 -58 17 -150 67 -193 105 -38 33 -47 48 -47 74 0 76 78 118 265 141
59 8 56 8 75 6 18 -1 76 -74 124 -154 70 -116 141 -294 172 -432 8 -33 16 -69
19 -80 3 -11 8 -36 10 -55 3 -19 7 -44 9 -55 3 -11 5 -26 5 -32 1 -7 8 -13 17
-13 23 0 155 63 211 100 80 54 171 157 210 239 33 67 37 85 39 169 2 52 -1
102 -6 112 -5 9 -11 29 -14 44 -3 15 -21 56 -40 92 -20 36 -36 66 -36 69 0 2
21 2 48 -1 89 -8 157 -15 177 -19 11 -3 38 -7 60 -10 22 -3 48 -8 58 -11 19
-6 21 5 18 86 -4 94 -60 247 -116 317 -138 170 -247 255 -460 358 -91 44 -210
95 -223 95 -2 0 -1 -3 2 -8 2 -4 7 -32 10 -62 4 -30 8 -71 11 -90 49 -373 50
-633 3 -618 -6 2 -24 52 -39 110 -63 242 -153 459 -272 658 -75 124 -110 174
-257 360 -115 146 -103 135 -130 120z m-365 -614 l40 -86 70 -1 c39 0 86 -2
105 -4 19 -2 62 -6 95 -10 58 -5 78 -17 69 -40 -3 -7 -60 -33 -127 -59 -67
-27 -161 -63 -209 -82 -49 -19 -92 -34 -98 -34 -6 0 -18 -4 -28 -9 -17 -10
-55 -23 -60 -21 -1 0 -15 -6 -32 -15 -39 -20 -50 -19 -50 4 0 14 25 35 85 71
86 52 91 60 61 99 -10 13 -13 200 -3 244 3 19 26 39 37 32 3 -2 24 -42 45 -89z"/>
<path d="M4549 4375 c23 -39 45 -78 110 -198 64 -119 166 -386 185 -482 3 -17
10 -51 15 -76 6 -26 13 -66 17 -90 9 -60 11 -320 2 -394 -7 -63 -45 -242 -54
-257 -3 -4 -8 -21 -10 -36 -7 -34 -113 -313 -126 -329 -6 -7 -7 -13 -3 -13 4
0 3 -6 -3 -12 -13 -17 -151 -340 -195 -459 -38 -102 -91 -278 -102 -341 -4
-21 -10 -38 -14 -39 -3 0 -37 -2 -76 -5 -111 -6 -174 -12 -184 -18 -14 -9 -4
-281 14 -376 3 -14 7 -41 10 -60 27 -160 105 -371 174 -469 12 -16 21 -32 21
-36 0 -13 91 -118 159 -183 73 -71 195 -155 284 -196 66 -31 80 -29 47 6 -87
94 -210 359 -226 491 -3 23 -7 56 -10 72 -8 48 -9 215 -1 270 10 72 14 90 39
183 l23 84 70 -6 71 -6 79 123 c135 210 205 328 261 440 29 59 53 110 53 112
0 3 8 19 16 35 8 16 15 31 15 32 -1 4 7 31 25 79 35 94 93 342 109 472 9 63
18 198 18 262 2 164 -50 414 -119 575 -34 79 -128 260 -135 260 -4 0 -8 5 -8
11 0 15 -124 189 -181 254 -75 85 -211 217 -289 280 -107 84 -107 84 -81 40z"/>
<path d="M3380 3698 c0 -3 7 -22 15 -42 52 -124 23 -305 -71 -445 -16 -24 -36
-55 -45 -68 -22 -32 -141 -162 -280 -304 -63 -64 -130 -134 -150 -155 -52 -56
-171 -214 -194 -257 -11 -20 -23 -37 -27 -37 -5 0 -8 -7 -8 -15 0 -8 -3 -15
-7 -15 -5 0 -13 -10 -19 -23 -6 -12 -36 -70 -66 -128 -49 -94 -73 -148 -76
-172 -1 -4 -8 -20 -17 -36 -18 -35 -62 -204 -72 -275 -10 -65 -9 -229 0 -281
27 -146 95 -283 190 -380 35 -36 38 -37 33 -15 -20 73 -24 144 -15 219 9 72
18 122 25 133 3 5 7 19 10 32 11 61 145 356 166 364 4 2 8 8 8 13 0 14 105
174 184 279 76 102 173 218 243 290 l44 45 30 -35 c17 -19 38 -44 45 -55 14
-19 16 -18 64 35 72 78 172 221 224 320 92 174 121 361 82 525 -23 98 -94 236
-170 330 -62 77 -146 165 -146 153z"/>
<path d="M3886 3315 c10 -54 7 -278 -5 -340 -19 -100 -20 -106 -26 -125 -3
-10 -8 -27 -10 -37 -16 -77 -134 -328 -187 -398 -4 -5 -41 -55 -82 -110 -94
-127 -146 -184 -384 -419 -168 -167 -252 -260 -252 -280 0 -3 21 -26 46 -51
l46 -46 -56 -67 c-31 -37 -67 -80 -81 -97 -14 -16 -25 -35 -25 -42 0 -7 -4
-13 -9 -13 -5 0 -16 -12 -24 -27 -8 -16 -33 -64 -56 -108 -43 -83 -87 -207
-98 -279 -9 -58 -9 -244 0 -286 4 -19 10 -48 13 -65 20 -106 138 -306 241
-407 67 -67 115 -108 125 -108 3 0 2 16 -4 36 -10 36 -12 48 -25 114 -13 63
-9 292 6 345 27 99 103 284 133 320 4 5 35 48 67 94 57 81 117 155 174 213 15
16 28 33 30 38 1 5 -27 29 -61 54 l-64 45 44 31 c208 149 354 304 485 515 61
99 108 188 123 238 6 20 16 37 21 37 5 0 8 3 7 8 -1 4 9 39 22 77 13 39 25 75
26 80 1 6 7 28 13 50 5 22 13 58 17 80 3 22 8 43 10 46 7 11 17 153 17 229 -1
148 -23 276 -70 405 -28 77 -101 218 -132 256 l-20 24 5 -30z"/>
<path d="M3809 1402 c-94 -107 -143 -179 -195 -287 -21 -44 -39 -83 -40 -87
-1 -5 -2 -9 -4 -10 -1 -2 -3 -10 -5 -18 -1 -8 -8 -34 -14 -58 -45 -163 -2
-333 113 -454 30 -32 57 -58 61 -58 3 0 14 -8 25 -17 10 -10 40 -29 67 -43 26
-14 51 -29 55 -35 19 -26 7 81 -19 175 -9 30 -18 69 -20 86 -5 30 -3 32 34 39
21 5 40 9 43 10 26 6 150 46 150 49 0 2 -16 30 -35 62 -63 104 -131 306 -151
449 -3 22 -9 58 -13 80 -4 22 -7 66 -6 97 0 32 -3 58 -6 58 -4 0 -22 -17 -40
-38z"/>
</g>
</svg>
