<svg width="67" height="77" viewBox="0 0 67 77" fill="none" xmlns="http://www.w3.org/2000/svg">
  <path d="M57.6939 15.0963C56.5475 10.9436 53.7216 9.50054 52.307 9.02856C47.7581 10.088 49.6722 14.8621 55.6256 16.5938C53.2925 17.4766 49.7962 17.8229 47.5134 16.716C47.8721 17.0861 48.3213 17.4596 48.8744 17.8399C62.0752 26.9093 66.0542 34.5187 66.2821 40.342H66.3525C67.0632 33.337 65.7525 24.0877 57.6973 15.0997L57.6939 15.0963Z" fill="#00B9E4"/>
  <path d="M43.521 35.1399C45.2139 46.9528 33.6758 53.4043 31.7114 56.9356C32.0935 57.3465 32.4991 57.7608 32.9081 58.158C25.5837 65.9711 28.195 73.1798 33.3875 76.9997C31.9796 72.2969 32.5997 68.0695 38.1542 62.3141C37.5475 61.8795 36.9676 61.4721 36.4513 61.1087C44.3624 56.2158 49.9035 43.8052 43.5177 35.1365L43.521 35.1399Z" fill="#00B9E4"/>
  <path d="M37.2022 30.6345C39.6224 36.0877 33.7528 39.7379 30.2867 43.8329C27.3871 47.1842 20.3878 57.6764 27.4642 64.2671C25.6004 59.5677 30.7258 51.7546 35.5898 46.6953C36.1898 47.2793 36.7966 48.0535 36.7966 48.0535C41.1644 43.1945 44.3959 37.361 37.2055 30.6345H37.2022Z" fill="#0065BD"/>
  <path d="M51.5494 21.789C61.5589 38.1011 52.4209 44.4439 49.8465 55.6661C49.7996 55.8732 49.756 56.1244 49.7258 56.4097C48.5123 56.447 47.2854 56.5183 46.3066 56.6372C45.9412 68.0529 51.8611 72.1207 55.6088 73.5944C55.5586 73.5095 55.5116 73.428 55.4647 73.3431C53.8087 71.5706 50.5705 65.9986 53.1349 59.3128C53.1349 59.3128 53.8758 59.3706 54.801 59.5369C57.2413 55.4691 61.2103 51.0753 61.9712 41.6222C62.6115 33.653 57.7509 26.2304 51.5494 21.7856V21.789Z" fill="#0065BD"/>
  <path d="M54.4322 8.43783C54.4322 8.43783 60.617 7.55839 60.5097 9.9013C60.4326 11.5549 59.1722 11.6364 58.2537 10.6076C56.9698 9.16447 54.4289 8.43783 54.4289 8.43783H54.4322Z" fill="#0065BD"/>
  <path d="M43.1757 58.8713C43.0282 61.0275 43.8327 65.4858 45.8038 68.3788C45.8038 68.3788 43.4338 69.0816 42.7835 69.2039C43.1221 70.4602 43.4774 71.6045 43.578 72.8269C35.6904 69.2039 40.1923 61.7439 43.1757 58.8747V58.8713Z" fill="#FF6600"/>
  <path d="M49.8264 28.7633C50.5236 28.8516 52.2265 28.8583 52.2265 28.8583C49.8767 21.2897 44.8686 18.1523 39.6928 15.8671L39.7264 15.7517C41.2449 15.8569 43.0249 15.8841 47.376 18.0776C42.3846 14.2339 44.121 8.57696 51.1505 8.33927C48.5224 5.15089 45.073 3.06604 41.9488 2.12209C40.4203 6.66529 42.6729 8.69241 42.6561 8.73655C42.75 8.78408 35.4457 7.65677 37.2994 0.0134797C33.0556 -0.129132 29.7034 0.794447 27.2664 2.29526C27.1524 3.18149 27.0686 4.19335 27.0686 4.19335C26.5658 3.68403 25.5065 2.14247 25.1478 0.848775C23.0662 1.53127 20.7766 2.52955 19.6939 4.86227C18.9028 3.92171 18.1016 3.20526 17.4413 2.80799C16.5831 5.08298 16.7339 9.36132 18.2826 13.1032C19.181 12.8893 22.9522 11.5922 22.9522 11.5922C22.9522 11.5922 23.2371 14.7262 25.6037 16.4104C27.9704 18.0946 30.642 17.9995 32.5293 17.5649C35.6166 16.8552 36.5452 14.1558 35.9183 11.3952C35.3987 9.11005 33.8702 7.60924 32.1237 8.00991C30.1426 8.46491 30.404 11.7552 30.9437 14.1388C29.2006 15.5547 27.7525 14.4037 27.3033 12.4241C26.71 9.81292 28.376 7.20178 31.0208 6.59398C34.0713 5.89111 36.582 7.88767 37.1921 10.9165C38.6134 17.9689 32.298 19.3271 32.298 19.3271C38.885 21.5003 45.0563 25.5885 41.1343 32.1045C50.0677 35.5543 49.0252 45.4862 47.1547 54.3213C51.1606 48.7391 55.22 38.8921 49.8264 28.7599V28.7633Z" fill="#FF6600"/>
  <path d="M29.5995 29.2593C29.3179 28.3323 28.3491 22.6414 24.1589 17.1067C21.8225 14.0168 21.3163 13.4973 21.3163 13.4973C19.5062 14.2511 16.687 15.3886 13.9047 17.1237C13.6399 17.8368 13.5326 18.7638 13.5326 18.7638C13.5326 18.7638 5.3936 24.3731 2.60796 26.3901C-0.335229 28.5224 -0.536358 29.7822 0.760925 32.6106C0.760925 32.6106 2.60796 31.6837 4.0695 31.0657L4.21364 31.3543C2.1219 33.8738 2.1286 35.0113 2.1286 35.0113C2.27275 35.5579 2.79233 36.4645 3.26163 37.2693C5.3165 40.787 7.60602 39.748 16.4054 39.3304C20.542 39.1368 20.7029 43.0043 18.8625 43.8837C17.6491 44.461 15.8992 44.8141 14.8131 43.2658C14.2366 43.5306 13.8042 43.8158 13.0265 44.3252C9.73464 44.7802 9.56703 42.2098 9.03069 42.2845C8.42059 42.3693 8.69882 44.7903 10.5224 46.3183C9.05415 48.3692 10.4319 51.089 15.0981 54.0261C16.0836 53.707 16.7574 53.7036 17.1597 53.1093C17.3306 52.6679 17.1027 52.1586 16.5931 51.4455C18.1117 50.2809 19.4659 49.2079 20.6593 48.2096C20.8303 49.5169 21.6214 51.1603 24.3064 51.9685C24.4204 48.6782 28.8855 42.3761 27.7189 36.9433C27.3401 35.1709 26.1736 34.4408 25.2115 34.0334C23.4617 33.4527 20.9845 32.3594 21.7219 30.991C22.3086 29.8976 25.9825 29.6871 25.9825 29.6871C29.566 33.6463 30.1224 40.0468 30.1224 40.0468C33.4679 39.2726 38.6067 35.069 34.7953 29.6803C36.6256 29.6803 39.3677 30.2168 39.3677 30.2168C39.3677 30.2168 40.7923 23.565 29.4218 19.5074C29.4185 19.4666 30.6588 27.9927 29.9749 29.1846V29.1982L29.6028 29.2491L29.5995 29.2593ZM21.1554 23.1881C19.7106 23.7993 15.4702 25.3952 13.6198 26.0539L13.5863 25.5514C13.5863 25.5514 15.0914 24.6142 15.7685 24.2407C15.2858 23.3171 15.3093 23.0455 15.2757 22.6109C15.2389 22.1762 15.4232 20.3461 15.4232 20.3461L15.8724 20.1254L16.9619 22.3766C18.8592 22.3053 21.2057 22.689 21.2325 22.6958L21.1588 23.1949L21.1554 23.1881Z" fill="#FF6600"/>
</svg>
